<?xml version="1.0" encoding="UTF-8" standalone="no"?>
<!DOCTYPE svg PUBLIC "-//W3C//DTD SVG 1.1//EN" "http://www.w3.org/Graphics/SVG/1.1/DTD/svg11.dtd">
<svg width="100%" height="100%" viewBox="0 0 1851 1414" version="1.1" xmlns="http://www.w3.org/2000/svg" xmlns:xlink="http://www.w3.org/1999/xlink" xml:space="preserve" xmlns:serif="http://www.serif.com/" style="fill-rule:evenodd;clip-rule:evenodd;stroke-linejoin:round;stroke-miterlimit:2;">
    <g id="Prancheta2" transform="matrix(0.816498,0,0,0.893241,671.161006,-995.07012)">
        <rect x="-822" y="1114" width="2267" height="1583" style="fill:none;"/>
        <g transform="matrix(2.138545,0,0,1.954811,-13262.130191,-7142.648257)">
            <g transform="matrix(4.166667,0,0,4.166667,6078.334583,4368.295)">
                <path d="M0,31.873C-8.782,31.873 -15.902,24.753 -15.902,15.971C-15.902,7.189 -8.782,0.069 0,0.069L19.527,0.069L0.976,-31.986L-0.034,-31.986C-26.501,-31.986 -47.957,-10.53 -47.957,15.937C-47.957,42.404 -26.501,63.859 -0.034,63.859L56.442,63.859L37.931,31.873L0,31.873Z" style="fill:rgb(35,133,199);fill-rule:nonzero;"/>
            </g>
            <g transform="matrix(4.166667,0,0,4.166667,6677.8425,4380.180833)">
                <path d="M0,93.131L0,15.901C0,7.119 7.119,0 15.902,0C24.684,0 31.804,7.119 31.804,15.901L31.804,93.131L0,93.131Z" style="fill:rgb(251,238,134);fill-rule:nonzero;"/>
            </g>
            <g transform="matrix(4.166667,0,0,4.166667,6390.363333,4835.0075)">
                <path d="M0,-16.279L-74.887,-16.279C-83.627,-16.279 -90.718,-23.331 -90.786,-32.055L-122.842,-32.055C-122.792,-5.63 -101.358,15.776 -74.921,15.776L18.551,15.776L0,-16.279Z" style="fill:rgb(35,133,199);fill-rule:nonzero;"/>
            </g>
            <g transform="matrix(4.166667,0,0,4.166667,6654.894583,5017.564167)">
                <path d="M0,-59.841L-32.055,-59.841L-32.055,-43.939L-32.057,-43.939C-32.057,-43.916 -32.055,-43.893 -32.055,-43.87C-32.055,-36.08 -37.658,-29.603 -45.053,-28.238L-28.712,0C-11.812,-7.406 0,-24.272 0,-43.905C0,-43.939 -0.002,-43.973 -0.002,-44.008L0,-44.008L0,-59.841Z" style="fill:rgb(197,239,255);fill-rule:nonzero;"/>
            </g>
            <g transform="matrix(0,-4.166667,-4.166667,0,6744.099583,4236.005)">
                <path d="M-15.902,-15.902C-24.684,-15.902 -31.804,-8.782 -31.804,0C-31.804,8.782 -24.684,15.902 -15.902,15.902C-7.12,15.902 0,8.782 0,0C0,-8.782 -7.12,-15.902 -15.902,-15.902" style="fill:rgb(251,238,134);fill-rule:nonzero;"/>
            </g>
            <g transform="matrix(4.166667,0,0,4.166667,6654.894583,4434.9825)">
                <path d="M0,31.987C0,5.52 -21.456,-15.936 -47.923,-15.936L-118.848,-15.936L-100.337,16.051L-47.957,16.051C-39.175,16.051 -32.055,23.17 -32.055,31.953C-32.055,31.976 -32.057,31.998 -32.057,32.021L-32.055,32.021L-32.055,47.923L0,47.923L0,32.09L-0.002,32.09C-0.002,32.056 0,32.022 0,31.987Z" style="fill:rgb(197,239,255);fill-rule:nonzero;"/>
            </g>
        </g>
    </g>
</svg>
